<svg width="79" height="79" viewBox="0 0 79 79" fill="none" xmlns="http://www.w3.org/2000/svg">
<path d="M74.4471 22.01C74.3646 21.6848 74.2122 21.3914 74.0076 21.1403C67.485 8.58374 54.501 0 39.573 0C24.6449 0 11.6609 8.58374 5.13834 21.1403C4.9337 21.3914 4.78137 21.6848 4.69887 22.01C2.12091 27.2859 0.664062 33.2222 0.664062 39.4998C0.664062 45.7773 2.12091 51.7136 4.69887 56.9895C4.78138 57.3147 4.9337 57.6081 5.13834 57.8592C11.6609 70.4158 24.6449 78.9995 39.573 78.9995C54.501 78.9995 67.485 70.4158 74.0076 57.8592C74.2122 57.6081 74.3646 57.3147 74.4471 56.9895C77.025 51.7136 78.4819 45.7773 78.4819 39.4998C78.4819 33.2222 77.025 27.2859 74.4471 22.01ZM70.847 54.1711H57.1654C57.8843 50.3111 58.3276 46.1418 58.4406 41.7569H73.9557C73.6776 46.1656 72.5921 50.3528 70.847 54.1711ZM5.19025 41.7569H20.7054C20.8183 46.1418 21.2617 50.3111 21.9805 54.1711H8.29895C6.55387 50.3528 5.46837 46.1656 5.19025 41.7569ZM8.29895 24.8284H21.9805C21.2617 28.6884 20.8183 32.8577 20.7054 37.2426H5.19025C5.46837 32.8339 6.55387 28.6467 8.29895 24.8284ZM41.7963 20.3142V4.98755C45.5948 6.56013 49.2878 12.05 51.604 20.3142H41.7963ZM52.6718 24.8284C53.4056 28.5669 53.8746 32.7297 53.9926 37.2426H41.7963V24.8284H52.6718ZM37.3496 4.98755V20.3142H27.542C29.8582 12.05 33.5511 6.56013 37.3496 4.98755ZM37.3496 24.8284V37.2426H25.1534C25.2714 32.7297 25.7403 28.5669 26.4741 24.8284H37.3496ZM25.1534 41.7569H37.3496V54.1711H26.4741C25.7403 50.4327 25.2714 46.2698 25.1534 41.7569ZM37.3496 58.6854V74.012C33.5511 72.4394 29.8582 66.9496 27.542 58.6854H37.3496ZM41.7963 74.012V58.6854H51.604C49.2878 66.9496 45.5948 72.4394 41.7963 74.012ZM41.7963 54.1711V41.7569H53.9926C53.8746 46.2698 53.4056 50.4327 52.6718 54.1711H41.7963ZM58.4406 37.2426C58.3276 32.8577 57.8843 28.6884 57.1654 24.8284H70.847C72.5921 28.6467 73.6776 32.8339 73.9557 37.2426H58.4406ZM68.3701 20.3142H56.1657C54.6475 14.4878 52.4464 9.60175 49.7737 6.0794C57.4755 8.50715 64.0232 13.6126 68.3701 20.3142ZM29.3723 6.0794C26.6996 9.60175 24.4985 14.4878 22.9802 20.3142H10.7759C15.1227 13.6126 21.6704 8.50715 29.3723 6.0794ZM10.7759 58.6854H22.9802C24.4985 64.5117 26.6996 69.3978 29.3723 72.9201C21.6704 70.4924 15.1227 65.3869 10.7759 58.6854ZM49.7737 72.9201C52.4464 69.3978 54.6475 64.5117 56.1657 58.6854H68.3701C64.0232 65.3869 57.4755 70.4924 49.7737 72.9201Z" fill="white"/>
</svg>
