<svg width="118" height="71" viewBox="0 0 118 71" fill="none" xmlns="http://www.w3.org/2000/svg">
<path d="M90.566 32.7263L91.4767 47.333C91.6116 49.4593 90.2287 51.4315 87.3282 53.2496C84.4276 55.0678 80.4646 56.5084 75.4392 57.5715C70.4138 58.6347 64.9668 59.1663 59.0982 59.1663C53.2296 59.1663 47.7826 58.6347 42.7572 57.5715C37.7317 56.5084 33.7687 55.0678 30.8682 53.2496C27.9676 51.4315 26.5848 49.4593 26.7197 47.333L27.6303 32.7263L56.6698 41.0928C57.4118 41.3085 58.2212 41.4164 59.0982 41.4164C59.9751 41.4164 60.7845 41.3085 61.5266 41.0928L90.566 32.7263ZM117.379 17.7499C117.379 18.4586 117.008 18.9363 116.266 19.1828L59.6041 35.4535C59.4692 35.4843 59.3005 35.4998 59.0982 35.4998C58.8958 35.4998 58.7272 35.4843 58.5923 35.4535L25.6067 25.9315C24.1564 26.9792 22.9591 28.6972 22.0147 31.0854C21.0703 33.4736 20.4969 36.2239 20.2946 39.3363C22.4194 40.4457 23.4818 42.1251 23.4818 44.3747C23.4818 46.501 22.5037 48.1496 20.5475 49.3206L23.4818 69.3355C23.5493 69.7669 23.4144 70.1521 23.0771 70.4911C22.7736 70.83 22.3688 70.9995 21.8629 70.9995H12.1494C11.6434 70.9995 11.2387 70.83 10.9352 70.4911C10.5979 70.1521 10.463 69.7669 10.5304 69.3355L13.4647 49.3206C11.5085 48.1496 10.5304 46.501 10.5304 44.3747C10.5304 42.1251 11.6266 40.4149 13.8189 39.2439C14.1899 32.865 15.8425 27.7804 18.7768 23.9901L1.9299 19.1828C1.1879 18.9363 0.816895 18.4586 0.816895 17.7499C0.816895 17.0411 1.1879 16.5635 1.9299 16.3169L58.5923 0.0462232C58.7272 0.0154074 58.8958 0 59.0982 0C59.3005 0 59.4692 0.0154074 59.6041 0.0462232L116.266 16.3169C117.008 16.5635 117.379 17.0411 117.379 17.7499Z" fill="white"/>
</svg>
