<svg width="547" height="419" viewBox="0 0 547 419" fill="none" xmlns="http://www.w3.org/2000/svg">
<g clip-path="url(#clip0_378_502)">
<path d="M188.293 54.5758C189.829 51.8669 192.284 49.6179 193.785 46.8943C195.287 44.1707 195.579 40.5254 193.077 38.4407C190.953 36.6706 187.626 36.6458 185.086 35.3637C178.615 32.0972 178.622 21.7221 171.224 20.8257C167.626 20.3897 164.371 22.7532 162.197 25.3015C160.022 27.8499 158.29 30.8235 155.274 32.5964C151.861 34.6035 147.447 34.6907 143.657 36.0848C136.389 38.7575 132.578 45.6303 129.392 51.9465C127.34 56.0153 125.24 60.4039 126.193 64.7735C124.123 65.9018 125.045 68.9366 127.111 70.0702C129.177 71.2037 131.772 71.1785 134.145 71.6695C139.131 72.7015 143.215 76.179 145.15 80.335C146.659 83.5742 146.967 87.1308 147.258 90.62C147.764 96.6746 148.269 102.729 148.774 108.784C148.998 111.477 149.293 114.34 151.165 116.486C153.036 118.632 157.089 119.532 159.193 117.557C161.204 115.671 160.298 112.684 160.257 110.103C160.217 107.522 162.88 104.308 165.391 105.658L166.276 103.898C172.012 102.099 177.034 98.8901 180.742 94.6553C184.45 90.4206 186.686 85.3395 187.183 80.0202C187.825 71.4524 183.933 62.2657 188.293 54.5758Z" fill="#E6E6E6"/>
<path d="M194.151 108.904C194.705 108.447 195.098 107.86 195.284 107.213C195.47 106.566 195.441 105.887 195.2 105.254C194.96 104.621 194.517 104.062 193.926 103.642C193.334 103.222 192.618 102.96 191.861 102.885L191.871 103.176C190.791 103.728 189.56 104.011 188.31 103.995C187.065 103.978 185.825 104.15 184.647 104.504C184.061 104.69 183.553 105.028 183.191 105.472C182.828 105.917 182.627 106.447 182.615 106.993C182.684 107.411 182.866 107.809 183.148 108.152C183.429 108.496 183.801 108.775 184.232 108.965C185.097 109.339 186.026 109.586 186.982 109.697C189.445 110.103 192.328 110.41 194.151 108.904Z" fill="#E6E6E6"/>
<path d="M242.184 54.7182C243.216 54.1035 244.092 53.309 244.757 52.3843C245.079 51.9165 245.232 51.3741 245.197 50.8285C245.161 50.283 244.938 49.7596 244.556 49.3272C243.78 48.7369 242.78 48.4206 241.752 48.4398C238.96 48.2572 236.155 48.547 233.488 49.2934C236.226 51.4185 238.964 53.5436 241.702 55.6688L242.184 54.7182Z" fill="#E6E6E6"/>
<path d="M228.492 60.2454C229.598 61.3155 229.245 62.9754 228.932 64.3931C228.619 65.8108 228.579 67.5823 229.971 68.3557C231.177 69.0261 232.871 68.4791 233.753 67.4948C234.542 66.445 235.022 65.2408 235.152 63.9891C235.586 62.17 235.781 60.3135 235.736 58.4555C235.684 56.5837 234.93 54.7789 233.591 53.3195C232.641 52.3704 231.375 51.7056 229.972 51.4184C228.568 51.1311 227.097 51.2359 225.765 51.7178L227.038 51.6629C226.113 52.7031 225.412 53.8819 224.968 55.1419C224.756 55.7749 224.741 56.4461 224.925 57.0859C225.108 57.7256 225.484 58.3106 226.014 58.78C226.768 59.3554 227.82 59.5959 228.492 60.2454Z" fill="#E6E6E6"/>
<path d="M290.908 42.2977L291.134 41.6875C290.188 42.1669 289.459 42.9164 289.069 43.8105C288.678 44.7046 288.65 45.6891 288.989 46.5992C289.717 46.0965 290.278 45.4328 290.616 44.6767C290.953 43.9206 291.054 43.0994 290.908 42.2977Z" fill="#E6E6E6"/>
<path d="M278.612 51.0323C279.817 50.4348 280.845 49.5984 281.614 48.5902C282.383 47.5819 282.871 46.4298 283.04 45.2263C283.171 44.478 283.072 43.7127 282.754 43.0089C282.591 42.6595 282.331 42.3509 281.999 42.1104C281.666 41.87 281.271 41.7053 280.849 41.6309L280.334 42.3412C279.595 41.7842 278.354 42.357 278.043 43.1664C277.843 44.0068 277.926 44.8801 278.283 45.6797C278.639 46.4841 278.623 47.3785 278.238 48.1726C277.822 48.6396 277.355 49.0694 276.844 49.4558C276.593 49.6552 276.43 49.9246 276.381 50.2179C276.333 50.5112 276.402 50.8102 276.577 51.0637C277.062 51.5488 277.969 51.3452 278.612 51.0323Z" fill="#E6E6E6"/>
<path d="M273.37 47.0635C273.811 46.3683 274.019 45.5783 273.97 44.7841L272.843 44.4746C272.123 44.7304 271.484 45.135 270.982 45.6541C270.829 45.7882 270.712 45.9502 270.639 46.1285C270.567 46.3068 270.54 46.497 270.561 46.6855C270.582 46.874 270.65 47.0561 270.76 47.2187C270.871 47.3814 271.021 47.5206 271.201 47.6264C271.38 47.7323 271.584 47.802 271.797 47.8308C272.011 47.8595 272.229 47.8466 272.437 47.7928C272.644 47.739 272.835 47.6457 272.996 47.5196C273.158 47.3935 273.285 47.2378 273.37 47.0635Z" fill="#E6E6E6"/>
<path d="M328.434 42.0684C328.536 42.1431 328.637 42.2199 328.739 42.2954C328.828 42.2788 328.914 42.2492 329.005 42.2394L328.434 42.0684Z" fill="#E6E6E6"/>
<path d="M326.63 50.7315C327.664 49.9985 328.698 49.2655 329.733 48.5325C330.282 48.1918 330.751 47.7605 331.112 47.2628C331.358 46.7915 331.465 46.2732 331.421 45.7562C331.377 45.2391 331.185 44.7402 330.862 44.3059C330.289 43.5361 329.572 42.8568 328.74 42.2969C327.827 42.4863 327.024 42.9626 326.485 43.6356C325.945 44.3086 325.706 45.1316 325.813 45.9486C326 46.9879 326.745 48.0993 326.137 49.0066C325.9 49.3598 325.493 49.6003 325.22 49.933C324.947 50.2656 324.858 50.7954 325.233 51.04C325.65 51.3115 326.226 51.0176 326.63 50.7315Z" fill="#E6E6E6"/>
<path d="M328.891 55.219C329.276 55.237 329.661 55.1824 330.019 55.0588C330.377 54.9352 330.701 54.7456 330.969 54.5027C332.351 53.5102 333.561 52.3459 334.559 51.0469C332.232 51.6927 329.905 52.3385 327.577 52.9843L328.303 53.7276C327.658 54.0961 328.136 55.0921 328.891 55.219Z" fill="#E6E6E6"/>
<path d="M335.416 59.4141C335.558 59.7321 335.815 60.0005 336.148 60.1785C336.48 60.3564 336.87 60.434 337.258 60.3994C337.644 60.3543 338.014 60.2356 338.342 60.0516C338.67 59.8676 338.949 59.6228 339.157 59.3345C339.511 58.8774 339.719 58.3459 339.759 57.7949C339.8 57.2439 339.672 56.6933 339.388 56.2002C339.105 55.7071 338.676 55.2893 338.146 54.99C337.617 54.6908 337.005 54.5209 336.375 54.498L337.018 55.3581C337.182 56.8261 334.904 58.009 335.416 59.4141Z" fill="#E6E6E6"/>
<path d="M380.616 75.4919C381.245 75.9034 382.01 76.125 382.795 76.1233C383.58 76.1217 384.344 75.897 384.971 75.4829C385.378 75.1786 385.708 74.804 385.942 74.3826C386.176 73.9612 386.308 73.502 386.329 73.0339C386.351 72.5657 386.262 72.0987 386.069 71.662C385.875 71.2253 385.58 70.8284 385.203 70.4961L384.015 71.0775C383.355 70.7063 382.557 70.5736 381.789 70.7074C381.02 70.8411 380.341 71.2309 379.893 71.7946C379.492 72.3855 379.345 73.0823 379.477 73.7599C379.609 74.4375 380.013 75.0516 380.616 75.4919Z" fill="#E6E6E6"/>
<path d="M394.435 76.8638C395.014 76.7166 395.54 76.4416 395.963 76.0653C396.386 75.6889 396.691 75.2238 396.85 74.7144L394.539 74.4484C393.897 74.0231 393.148 73.7367 392.355 73.6126C391.958 73.5605 391.552 73.6296 391.205 73.8084C390.859 73.9872 390.593 74.2648 390.453 74.5948C390.403 74.8755 390.437 75.1626 390.551 75.4287C390.664 75.6947 390.853 75.9309 391.1 76.1147C391.537 76.4792 392.072 76.7395 392.656 76.8706C393.24 77.0018 393.853 76.9994 394.435 76.8638Z" fill="#E6E6E6"/>
<path d="M384.894 80.9115C384.934 81.2409 385.081 81.5532 385.317 81.8122C385.553 82.0711 385.868 82.2658 386.225 82.3737C386.616 82.536 387.053 82.5918 387.48 82.5339C387.908 82.4759 388.305 82.3069 388.621 82.0486C388.761 81.9106 388.861 81.7455 388.913 81.5669C388.965 81.3882 388.968 81.2013 388.921 81.0216C388.874 80.8419 388.779 80.6746 388.643 80.5336C388.507 80.3926 388.335 80.282 388.141 80.2109L386.408 79.9349C385.739 79.6311 384.883 80.251 384.894 80.9115Z" fill="#E6E6E6"/>
<path d="M284.344 91.5847L283.003 90.5117C283.36 90.9474 283.817 91.3128 284.344 91.5847Z" fill="#E6E6E6"/>
<path d="M274.097 85.2672C274.923 88.6266 279.053 91.3633 282.803 90.3539L283.001 90.5121C281.807 89.0808 281.605 86.963 281.884 85.1212C282.401 81.9652 283.817 78.9742 286.002 76.4241C288.187 73.874 291.069 71.847 294.384 70.5302C295.292 70.2819 296.104 69.8185 296.73 69.1913C297.264 68.5067 297.065 67.3328 296.144 67.1394C295.644 67.0893 295.139 67.1916 294.715 67.4292L287.747 70.4336C284.227 71.9511 280.638 73.512 277.873 75.95C275.109 78.3881 273.272 81.9078 274.097 85.2672Z" fill="#E6E6E6"/>
<path d="M161.618 200.783C155.125 196.712 148.015 193.456 140.492 191.112C135.868 189.672 130.9 188.573 126.083 189.391C123.441 189.869 120.965 190.887 118.857 192.362C116.748 193.836 115.067 195.726 113.948 197.877C112.871 200.043 112.364 202.394 112.466 204.755C112.568 207.117 113.275 209.428 114.535 211.517C116.757 215.164 120.604 218.068 121.89 222.046C122.757 224.727 122.346 227.582 121.929 230.345C121.076 235.99 120.223 241.636 119.37 247.282C118.594 252.422 117.837 257.772 119.695 262.695C121.553 267.618 126.854 271.958 132.743 271.435L133.91 271.358C130.014 269.037 128.922 264.233 130.082 260.234C131.242 256.234 134.186 252.842 137.06 249.573C145.589 239.87 154.118 230.168 162.648 220.466C166.098 216.54 169.748 211.688 167.908 207.003C166.862 204.34 164.231 202.423 161.618 200.783Z" fill="#E6E6E6"/>
<path d="M103.493 176.256C102.629 176 101.716 176.57 101.208 177.233C100.798 177.946 100.316 178.625 99.7673 179.263C98.4386 180.463 96.0173 180.224 94.5843 179.12C93.1513 178.017 92.5304 176.31 92.2523 174.656C91.9186 172.671 92.0627 170.458 93.5576 168.939C95.0966 167.375 97.626 166.955 99.9535 166.63C102.358 166.295 105.051 166.015 107.021 167.268C108.262 168.058 108.985 169.332 110.134 170.221C111.284 171.111 113.328 171.448 114.193 170.338C114.419 169.945 114.534 169.51 114.526 169.07C114.519 168.629 114.391 168.197 114.151 167.81C113.665 167.038 113.373 166.185 113.293 165.306C113.351 164.087 114.469 163.117 115.613 162.42C116.756 161.723 118.048 161.122 118.798 160.094C119.721 158.829 119.623 157.199 120.196 155.784C121.581 152.36 126.526 150.836 127.967 147.429C128.314 146.713 128.353 145.91 128.077 145.17C127.474 143.813 125.844 144.079 125.744 142.42C125.648 140.834 127.159 139.278 128.694 138.615C130.811 137.701 133.278 137.775 135.637 137.72C137.996 137.664 140.537 137.39 142.268 135.985C142.828 135.479 143.26 134.875 143.536 134.213C143.811 133.551 143.924 132.845 143.867 132.142C143.809 131.439 143.583 130.754 143.203 130.133C142.823 129.512 142.297 128.968 141.66 128.537C140.37 127.756 138.74 127.485 137.485 126.662C135.922 125.637 135.182 123.931 133.964 122.593C132.951 121.575 131.792 120.676 130.516 119.919C129.471 119.24 128.427 118.561 127.382 117.882C125.493 116.654 123.528 115.395 121.23 114.958C118.932 114.52 116.195 115.139 115.044 116.936C114.59 117.737 114.342 118.615 114.318 119.509C114.213 121.613 114.313 123.721 114.617 125.811C114.807 127.493 114.997 129.175 115.186 130.857C115.356 132.364 115.174 134.352 113.503 134.744C109.797 135.612 111.047 130.811 110.225 129.34C108.967 127.088 103.186 126.007 100.714 125.069C99.1708 124.483 97.5419 123.836 96.6099 122.609C95.4499 121.082 95.688 119.004 96.5976 117.352C97.5072 115.7 98.9894 114.356 100.336 112.951C101.708 111.519 102.958 110.001 104.206 108.485C105.654 106.726 107.102 104.967 108.55 103.208C110.407 100.952 112.359 98.1994 111.304 95.5763C111.075 95.2254 110.734 94.9413 110.322 94.7597C109.91 94.5782 109.446 94.5071 108.988 94.5555C108.53 94.6038 108.098 94.7695 107.747 95.0317C107.397 95.2938 107.142 95.6409 107.015 96.0294C106.553 97.4455 107.786 99.2536 106.606 100.303C106.202 100.588 105.696 100.74 105.177 100.731C104.659 100.723 104.16 100.555 103.768 100.256C103.004 99.6383 102.422 98.8673 102.072 98.0094C100.642 95.2267 99.2498 92.4268 97.7826 89.6594C97.3188 88.7845 96.8347 87.2865 95.4291 87.434C94.2089 87.562 93.5499 89.1198 93.5923 90.0242C93.654 91.3401 94.4842 92.5159 95.1187 93.7098C95.7533 94.9038 96.197 96.3375 95.5003 97.5045C94.6181 98.9821 92.384 99.3141 90.4814 99.2652C86.8951 99.1701 83.3811 98.3578 80.2081 96.8905C80.1253 98.4347 80.0424 99.9789 79.9594 101.523C77.434 100.597 74.9086 99.6711 72.3832 98.745C71.8927 98.5652 71.4023 98.3853 70.9118 98.2054C68.7815 97.4243 66.6485 96.6423 64.4555 96.0082C63.2105 95.6482 61.9482 95.3364 60.6863 95.0248C59.9192 94.8354 59.1521 94.646 58.3851 94.4566C56.8714 93.9867 55.266 93.7861 53.6627 93.8664C51.9783 94.0518 50.4759 94.8443 48.9181 95.4368C45.4426 96.7585 40.9472 95.4288 37.2227 95.4053C35.7453 93.5158 33.7508 91.981 31.4215 90.9412C29.0922 89.9014 26.5024 89.3898 23.8891 89.4533C21.2759 89.5167 18.7224 90.1531 16.4624 91.3043C14.2024 92.4555 12.3079 94.0847 10.9522 96.043C10.2974 97.0351 9.71424 98.0623 9.2062 99.1184C8.70085 100.111 8.1955 101.103 7.69013 102.095C6.94878 103.55 6.19109 105.084 6.3368 106.672C6.48252 108.261 7.87268 109.884 9.69182 109.869C5.40212 111.571 4.50948 117.524 8.15215 120.138C9.16082 120.862 10.3977 121.336 11.3054 122.156C11.9915 122.775 12.4504 123.561 12.6234 124.411C12.7964 125.261 12.6756 126.136 12.2763 126.926C11.8771 127.715 11.2177 128.382 10.3828 128.841C9.54796 129.299 8.57565 129.529 7.59069 129.5C10.1321 130.361 12.9314 130.441 15.5314 129.727C18.1314 129.014 20.3784 127.549 21.9053 125.572C23.4627 123.436 24.1396 120.768 26.2582 119.041C29.0639 116.755 33.6983 116.933 36.9344 118.73C40.1704 120.528 42.2175 123.588 43.6257 126.71C45.471 130.801 46.652 135.476 50.5833 138.213C52.4842 139.536 54.8915 140.28 56.5717 141.816C58.9644 144.002 59.3783 147.302 59.3244 150.331C59.2704 153.36 58.8981 156.502 60.1574 159.323C61.4168 162.144 65.0271 164.464 68.2646 163.4C67.3371 165.811 67.3656 168.425 68.3453 170.82C69.325 173.215 71.1987 175.25 73.6629 176.595C73.0731 173.39 72.4833 170.186 71.8935 166.981C74.8332 167.706 76.7386 170.204 77.839 172.699C78.9394 175.195 79.5208 177.894 81.1158 180.176C83.6275 183.768 88.1758 185.316 92.8027 185.303C97.801 185.288 99.6986 183.2 102.993 180.126C103.654 179.601 104.157 178.94 104.454 178.203C104.588 177.832 104.565 177.43 104.389 177.072C104.212 176.715 103.894 176.425 103.493 176.256Z" fill="#E6E6E6"/>
<path d="M117.645 176.097C114.851 175.713 112.057 175.328 109.264 174.943C110.728 175.715 112.193 176.486 113.657 177.257C114.879 177.969 116.207 178.53 117.603 178.923C118.304 179.116 119.042 179.181 119.772 179.113C120.503 179.046 121.209 178.848 121.848 178.531L121.491 177.932C120.927 176.685 119.158 176.306 117.645 176.097Z" fill="#E6E6E6"/>
<path d="M115.748 189.701L115.768 189.659C115.599 189.413 115.35 189.218 115.053 189.097C114.756 188.977 114.425 188.937 114.102 188.982C113.458 189.083 112.8 189.092 112.153 189.01C111.742 188.869 111.376 188.644 111.084 188.354C110.793 188.064 110.585 187.717 110.478 187.342C110.2 186.61 110.118 185.827 109.802 185.107C109.574 184.538 109.17 184.035 108.636 183.653C108.103 183.272 107.459 183.027 106.776 182.945C106.091 182.897 105.412 183.087 104.886 183.474C104.36 183.861 104.029 184.413 103.964 185.013C104.018 185.63 104.241 186.226 104.616 186.751C104.917 187.259 105.219 187.766 105.52 188.274C105.774 188.729 106.066 189.167 106.394 189.584C106.928 190.228 107.625 190.754 108.431 191.121C109.237 191.487 110.13 191.684 111.038 191.695C111.946 191.706 112.844 191.532 113.662 191.186C114.48 190.84 115.194 190.331 115.748 189.701V189.701Z" fill="#E6E6E6"/>
<path d="M99.4292 59.4555C101.557 60.5542 104.221 61.3114 105.231 63.2853L105.814 63.4504C105.178 64.1428 104.542 64.8351 103.906 65.5275C103.12 66.3832 102.294 67.3366 102.312 68.4348C102.337 69.9472 103.998 71.0883 105.676 71.4449C107.467 71.7676 109.33 71.496 110.905 70.6828C112.48 69.8696 113.654 68.5727 114.199 67.044C114.399 66.4064 114.481 65.7451 114.656 65.102C115.166 63.5768 115.936 62.1278 116.94 60.8039C122.589 52.4782 128.238 44.1526 133.887 35.8269C134.59 34.79 135.315 33.5497 134.786 32.4361C134.504 31.9651 134.067 31.5789 133.532 31.3273C132.997 31.0757 132.388 30.9703 131.784 31.0246C130.578 31.1529 129.415 31.4955 128.366 32.0316C127.9 31.3144 127.242 30.707 126.449 30.2615C125.656 29.8161 124.752 29.546 123.813 29.4743C121.936 29.3475 120.049 29.4915 118.225 29.9007C114.106 30.4452 110.134 31.6406 106.502 33.4288C104.516 34.3087 102.329 35.3953 101.753 37.279C101.044 39.5962 103.329 41.9578 105.959 42.6237C108.59 43.2897 111.398 42.7304 114.061 42.1699C114.362 43.3007 114.237 44.4864 113.703 45.5495C113.17 46.6125 112.258 47.4956 111.104 48.0664C109.95 48.6371 108.616 48.8648 107.301 48.7153C105.987 48.5659 104.763 48.0472 103.814 47.2372C101.905 45.6091 100.97 42.7828 98.3501 42.3626C95.738 41.9438 93.6617 44.3845 93.0852 46.6553C92.5213 49.1012 92.8271 51.6398 93.9615 53.9286C95.0959 56.2174 97.0043 58.1465 99.4292 59.4555Z" fill="#E6E6E6"/>
<path d="M132.194 99.5174C130.936 96.4113 129.283 93.4391 127.266 90.6572C125.736 88.4576 123.849 86.4652 121.663 84.743C119.666 83.2318 117.369 82.0534 114.888 81.2659C112.479 80.5028 109.797 80.1258 107.362 80.8216C104.927 81.5175 102.855 83.5011 102.904 85.7447C102.959 88.2254 105.436 90.1655 108.019 91.1849C110.601 92.2042 113.473 92.6478 115.909 93.9132C117.566 94.7933 118.95 96.0164 119.941 97.4749C120.931 98.9334 121.498 100.583 121.59 102.278L122.204 103.167C120.813 103.57 119.517 104.189 118.376 104.992C117.811 105.401 117.379 105.933 117.123 106.535C116.868 107.137 116.799 107.787 116.922 108.419C117.348 109.922 119.099 110.784 120.682 111.471C123.607 112.74 126.533 114.009 129.458 115.278C127.969 111.387 132.845 107.767 133.115 103.669C133.126 102.246 132.812 100.834 132.194 99.5174Z" fill="#E6E6E6"/>
<path d="M58.6365 89.0124C60.4111 90.2197 63.1396 89.6549 64.7653 88.2962C66.391 86.9375 67.1829 85.004 67.9213 83.1449C67.6516 84.985 67.6771 86.8491 67.9972 88.683C68.1638 89.6 68.546 90.4768 69.1195 91.2577C69.693 92.0387 70.4453 92.7068 71.3288 93.2198C72.131 93.6053 72.9957 93.8811 73.8931 94.0377C78.0645 94.8694 82.4239 94.5965 86.418 93.2537L86.4538 92.0573C84.4473 92.2578 82.929 90.3299 82.7965 88.5646C82.664 86.7992 83.3954 85.068 83.4597 83.2997C83.524 81.5315 82.5512 79.4655 80.5639 79.1508C80.9117 79.7628 81.0385 80.4531 80.9275 81.1298C80.8165 81.8064 80.4729 82.4375 79.9424 82.9388C79.4119 83.4402 78.7197 83.7882 77.9579 83.9365C77.1961 84.0847 76.4008 84.0262 75.6779 83.7687C73.3776 82.9495 72.542 80.4945 70.7643 78.9756C69.666 78.1196 68.3033 77.5673 66.8476 77.3879C65.3919 77.2085 63.9081 77.4102 62.5829 77.9675C61.2744 78.5523 60.1265 79.3791 59.2185 80.3907C58.3105 81.4022 57.6641 82.5744 57.3238 83.8263C56.784 85.6427 56.9442 87.8611 58.6365 89.0124Z" fill="#E6E6E6"/>
<path d="M113.403 76.4122L113.485 76.2951C112.989 75.0419 111.454 74.307 109.955 74.1205C108.444 74.0332 106.927 74.0771 105.426 74.2517C103.911 74.4233 102.375 74.127 101.083 73.4136C100.051 72.7379 99.463 71.6748 98.6381 70.8079C97.8133 69.9411 96.4783 69.2282 95.2802 69.6427C93.983 70.0914 93.6369 71.6843 94.2664 72.7746C95.008 73.821 96.1267 74.6209 97.4455 75.0477C102.44 77.0561 108.059 77.5366 113.403 76.4122Z" fill="#E6E6E6"/>
<path d="M96.3559 80.1698C95.941 80.436 95.6598 80.8325 95.571 81.2763C95.4821 81.72 95.5927 82.1767 95.8794 82.5507C96.1661 82.9247 96.6068 83.1871 97.1094 83.283C97.6119 83.3788 98.1373 83.3008 98.5756 83.065L99.0132 83.4435C99.5953 82.5304 99.8353 81.3071 99.091 80.4895C98.76 80.1505 98.2979 79.9304 97.7932 79.8714C97.2885 79.8124 96.7767 79.9186 96.3559 80.1698Z" fill="#E6E6E6"/>
<path d="M91.2354 83.4457C91.2418 83.1195 91.1353 82.7992 90.9299 82.527C90.7246 82.2548 90.4299 82.0434 90.0849 81.9207C89.8499 81.8854 89.6093 81.8921 89.3774 81.9405C89.1455 81.9888 88.9272 82.0777 88.7356 82.2019C88.544 82.3262 88.3831 82.4831 88.2626 82.6632C88.1421 82.8433 88.0644 83.043 88.0343 83.2501C87.9982 83.6721 88.0615 84.096 88.2202 84.4956C88.379 84.8953 88.6299 85.262 88.9573 85.5731C89.1477 85.8238 89.3967 86.0361 89.6877 86.1963C89.9787 86.3565 90.3051 86.4608 90.6455 86.5024C91.3313 86.522 92.0307 85.8938 91.7526 85.3442L90.7053 85.3263C91.028 84.7381 91.2085 84.0979 91.2354 83.4457Z" fill="#E6E6E6"/>
<path d="M70.7552 74.05C71.1398 74.3231 71.5244 74.5962 71.909 74.8693C72.5752 75.3738 73.2949 75.8214 74.0582 76.2061C75.3934 76.854 76.9636 77.0224 78.4377 76.6758C79.1655 76.494 79.8293 76.1546 80.368 75.6889C80.9066 75.2232 81.3028 74.6462 81.52 74.0111C81.9799 72.4931 81.2297 70.9168 80.4956 69.484C80.3281 69.074 80.0516 68.7047 79.6891 68.4067C79.5034 68.2626 79.2664 68.1792 79.0185 68.1706C78.7706 68.1621 78.5269 68.229 78.3288 68.3599C78.1852 68.5166 78.0897 68.7029 78.0514 68.901C78.013 69.0992 78.0332 69.3027 78.1099 69.4921C78.2677 69.8696 78.3398 70.2704 78.3222 70.6721C78.2491 71.0683 77.7743 71.4428 77.3562 71.2789L77.2896 72.6277C75.2926 71.7421 74.2365 69.3865 72.014 69.1543C71.5152 69.1021 71.0097 69.171 70.5525 69.3534C70.0953 69.5357 69.7041 69.8246 69.4215 70.1884C69.1389 70.5522 68.9758 70.977 68.9499 71.4165C68.9241 71.856 69.0365 72.2933 69.2749 72.6806C69.6608 73.2179 70.1638 73.6832 70.7552 74.05Z" fill="#E6E6E6"/>
<path d="M66.0007 68.2273C66.4627 67.9499 66.8282 67.566 67.057 67.1182C67.2857 66.6703 67.3689 66.1758 67.2973 65.6891C67.242 65.4534 67.1281 65.2313 66.9637 65.0385C66.7993 64.8457 66.5884 64.6871 66.3461 64.5738C66.1038 64.4605 65.8359 64.3953 65.5616 64.383C65.2873 64.3707 65.0133 64.4114 64.759 64.5024C64.1884 64.8761 63.7876 65.415 63.6278 66.0232C63.1015 67.3237 62.5752 68.6243 62.0488 69.9249L62.9334 69.3611C64.0278 69.1546 65.0683 68.77 66.0007 68.2273Z" fill="#E6E6E6"/>
<path d="M76.2507 60.2452C76.4087 60.0706 76.5212 59.8678 76.5801 59.651C76.639 59.4343 76.643 59.2088 76.5917 58.9906C76.5405 58.7723 76.4352 58.5666 76.2834 58.3878C76.1316 58.209 75.9369 58.0616 75.713 57.9558L74.607 57.8652C74.3555 57.921 74.1224 58.0276 73.9265 58.1766C73.7305 58.3255 73.5772 58.5127 73.4787 58.7229C73.3803 58.9332 73.3394 59.1607 73.3595 59.3873C73.3795 59.6139 73.4599 59.8332 73.5942 60.0276C73.7285 60.2221 73.9129 60.3862 74.1327 60.507C74.3525 60.6277 74.6016 60.7016 74.8599 60.7227C75.1182 60.7439 75.3785 60.7117 75.6201 60.6288C75.8616 60.5458 76.0776 60.4145 76.2507 60.2452Z" fill="#E6E6E6"/>
<path d="M86.4243 61.7417C87.4564 62.1743 88.763 62.5865 89.6609 61.9653C89.9268 61.7544 90.1247 61.4859 90.2344 61.1867C90.3442 60.8875 90.3619 60.5682 90.286 60.2611C90.1248 59.6484 89.8134 59.0737 89.3733 58.5771C88.0002 56.85 86.2556 55.3742 84.2373 54.2324L83.7383 54.8004C83.0412 56.386 82.3683 58.237 83.3405 59.7073C83.996 60.6984 85.2448 61.2473 86.4243 61.7417Z" fill="#E6E6E6"/>
<path d="M94.1152 63.1528L96.0453 63.9176C95.8561 63.6287 95.5678 63.3993 95.2213 63.262C94.8749 63.1247 94.4879 63.0865 94.1152 63.1528Z" fill="#E6E6E6"/>
<path d="M88.9128 68.4727L88.0008 68.7359C87.2253 69.8523 87.5618 71.2799 87.9225 72.548C88.1505 73.3497 88.6424 74.3361 89.5845 74.2997C90.5013 74.2642 90.907 73.2904 91.083 72.5014C91.3576 71.6442 91.3874 70.7411 91.1696 69.8715C91.0454 69.441 90.7498 69.0635 90.336 68.8071C89.9222 68.5506 89.4176 68.432 88.9128 68.4727Z" fill="#E6E6E6"/>
<path d="M74.3689 64.7156L75.0437 64.9536C75.2019 64.9338 75.3482 64.8689 75.4601 64.7689C75.5719 64.6688 75.6429 64.5392 75.6621 64.4003C75.6813 64.2613 75.6477 64.1206 75.5663 64.0001C75.485 63.8795 75.3606 63.7858 75.2124 63.7336C75.0641 63.6813 74.9003 63.6733 74.7464 63.7108C74.5924 63.7483 74.4569 63.8293 74.3608 63.9412C74.2647 64.0531 74.2134 64.1896 74.2149 64.3296C74.2163 64.4696 74.2705 64.6053 74.3689 64.7156Z" fill="#E6E6E6"/>
<path d="M108.389 109.918C108.062 109.924 107.742 109.999 107.454 110.136C107.167 110.273 106.922 110.468 106.738 110.705C106.554 110.942 106.438 111.214 106.399 111.498C106.359 111.783 106.398 112.071 106.512 112.34C107.175 113.59 109.457 113.595 110.471 112.541C110.731 112.242 110.917 111.899 111.018 111.533C111.119 111.168 111.132 110.788 111.057 110.418C110.981 110.047 110.819 109.695 110.581 109.382C110.342 109.07 110.032 108.804 109.67 108.602L108.389 109.918Z" fill="#E6E6E6"/>
<path d="M141.262 139.532C140.997 139.594 140.748 139.702 140.531 139.849C140.315 139.997 140.134 140.181 139.999 140.391C139.865 140.6 139.78 140.832 139.75 141.071C139.72 141.31 139.744 141.552 139.822 141.782L141.717 141.897C142.358 141.615 143 141.333 143.642 141.051C143.603 140.813 143.51 140.584 143.369 140.378C143.227 140.172 143.04 139.993 142.818 139.851C142.596 139.709 142.344 139.608 142.077 139.553C141.81 139.498 141.532 139.491 141.262 139.532Z" fill="#E6E6E6"/>
<path d="M133.561 141.584C133.019 141.921 132.583 142.373 132.296 142.899C132.009 143.424 131.879 144.005 131.919 144.586C131.981 145.166 132.252 145.714 132.692 146.15C133.133 146.586 133.721 146.888 134.37 147.013C135.026 147.103 135.696 146.971 136.246 146.645C136.795 146.319 137.182 145.822 137.329 145.254C137.65 143.538 135.544 142.28 134.787 140.672L133.561 141.584Z" fill="#E6E6E6"/>
<path d="M207.148 130.247C207.348 131.536 206.023 132.665 205.974 133.965C205.915 135.507 207.832 136.707 209.585 136.556C210.455 136.424 211.278 136.116 211.99 135.658C212.702 135.2 213.283 134.604 213.687 133.916L213.725 133.772C212.871 132.926 212.017 132.08 211.163 131.235C210.114 130.197 209.003 129.015 209.044 127.629C209.064 126.945 209.371 126.283 209.354 125.6C209.313 125.109 209.188 124.625 208.983 124.166C208.751 123.562 208.437 122.881 207.747 122.677C206.884 122.421 206.013 123.091 205.601 123.803C205.231 124.459 205.05 125.186 205.077 125.918C205.103 126.65 205.335 127.365 205.752 128C206.25 128.741 207.016 129.394 207.148 130.247Z" fill="#E6E6E6"/>
<path d="M199.095 134.78C199.282 134.868 199.488 134.92 199.7 134.932C199.912 134.944 200.124 134.915 200.322 134.848C201.083 134.735 201.815 134.502 202.481 134.161C202.812 133.987 203.084 133.739 203.27 133.442C203.456 133.145 203.548 132.81 203.537 132.472C203.422 132.047 203.165 131.661 202.8 131.364C202.434 131.066 201.976 130.87 201.483 130.801C201.141 130.696 200.775 130.666 200.416 130.714C200.058 130.762 199.718 130.886 199.428 131.076C198.792 131.599 198.868 132.487 198.992 133.243L198.858 133.44C198.738 133.907 198.662 134.488 199.095 134.78Z" fill="#E6E6E6"/>
<path d="M333.506 189.861C333.321 189.459 333.136 189.057 332.952 188.654C332.699 189.201 332.793 189.76 333.506 189.861Z" fill="#E6E6E6"/>
<path d="M444.379 105.229C442.009 102.976 440.558 101.677 439.061 98.8845C438.246 97.3444 437.009 96.005 435.46 94.9858C433.911 93.9665 432.097 93.2992 430.182 93.0434C425.265 92.3337 420.24 93.4575 415.263 93.2323C407.292 92.8716 400.103 89.1259 392.469 87.0828C388.195 86.0337 383.842 85.2472 379.443 84.7292C376.908 84.378 374.373 84.0268 371.838 83.6756C363.528 82.5244 355.166 81.3698 346.754 81.5226C344.329 81.5667 340.95 80.9281 341.145 78.8097C341.386 76.1787 346.789 76.5241 347.829 74.0466C348.472 72.514 346.933 70.9049 345.245 70.2119C343.557 69.5189 341.609 69.3105 340.078 68.3801C338.546 67.4497 337.707 65.2929 339.115 64.2227C335.213 65.9749 331.311 67.7272 327.409 69.4796C324.165 70.9364 320.541 72.8318 319.968 75.9857C318.013 76.4382 316.302 77.4792 315.136 78.9262C312.942 78.9362 311.217 80.7822 310.855 82.6786C310.493 84.575 311.151 86.4943 311.801 88.3307C311.005 86.9948 310.16 85.6079 308.756 84.7362C307.353 83.8646 305.217 83.6985 304.021 84.7814C302.793 85.8926 303.08 87.757 303.949 89.1033C304.817 90.4496 306.151 91.5362 306.971 92.9059C309.53 97.1838 304.892 103.207 299.406 102.73C299.774 98.3126 300.142 93.8953 300.51 89.4779C300.743 88.1191 300.613 86.7315 300.129 85.4244C299.531 84.1599 297.998 83.1213 296.473 83.4199C293.731 83.9569 293.966 87.4756 295.106 89.725C296.247 91.9744 297.384 95.1026 295.056 96.4801C293.552 97.3698 291.513 96.8204 289.89 96.1102C288.267 95.4002 286.53 94.5251 284.756 94.8568C282.981 95.1886 281.865 97.5648 283.433 98.365C280.833 97.9692 278.233 97.5733 275.633 97.1775C275.504 97.848 275.217 98.4873 274.788 99.0543C274.36 99.6212 273.8 100.103 273.146 100.469C272.492 100.834 271.757 101.076 270.99 101.177C270.222 101.279 269.439 101.238 268.691 101.058C268.436 100.131 268.18 99.2044 267.925 98.2777C267.545 98.1849 267.164 98.0921 266.784 97.9993C267.978 98.2907 266.109 102.703 264.434 106.073C262.183 105.842 258.891 105.797 258.516 105.232C256.718 102.525 256.931 96.077 253.807 94.554C252.241 93.7902 250.634 93.0943 248.987 92.4661C248.122 92.1055 247.209 91.8427 246.268 91.6839C244.349 91.419 242.415 91.9403 240.564 92.4554C238.376 93.064 236.138 93.6955 234.326 94.9305C232.78 96.1059 231.454 97.4872 230.397 99.0237C226.821 103.661 223.245 108.297 219.668 112.934C218.603 114.172 217.765 115.549 217.184 117.014C216.91 117.742 216.819 118.513 216.916 119.275C217.014 120.038 217.298 120.772 217.75 121.429C218.225 122.073 218.935 122.558 219.763 122.806C220.592 123.054 221.492 123.051 222.318 122.797C223.354 122.403 224.392 121.513 225.42 121.924C226.198 122.236 226.392 123.131 226.31 123.877C226.113 124.608 226.097 125.367 226.265 126.103C226.732 127.264 228.531 127.668 229.815 127.166C231.062 126.569 231.997 125.572 232.422 124.384C233.659 121.606 233.533 118.533 233.841 115.563C234.148 112.594 235.075 109.418 237.747 107.571C238.547 107.019 239.722 106.62 240.546 107.146C240.854 107.391 241.067 107.715 241.156 108.072C241.244 108.429 241.203 108.8 241.038 109.136C240.694 109.799 240.245 110.417 239.704 110.971C238.791 112.096 238.152 113.374 237.827 114.725C237.502 116.076 237.498 117.471 237.815 118.824L238.361 119.12C240.445 118.646 243.234 119.494 246 120.307C243.992 120.83 242.224 121.896 240.948 123.351C237.75 127.282 235.436 131.001 229.11 130.954C227.61 130.943 226.122 130.683 224.621 130.68C223.106 130.598 221.614 131.034 220.458 131.895C219.32 132.871 218.969 134.357 217.995 135.461C216.716 136.912 214.577 137.503 212.623 138.162C211.195 138.644 209.69 139.294 209.034 140.504C208.622 141.497 208.526 142.57 208.759 143.607C208.979 145.441 209.368 147.526 211.144 148.516C211.808 148.82 212.534 149.004 213.281 149.06C214.027 149.115 214.779 149.04 215.491 148.838C217.338 148.445 219.145 147.703 221.042 147.814C224.02 147.988 226.472 150.492 226.503 153.107C226.518 154.431 226.077 155.949 227.078 156.94C228.019 157.871 229.886 157.705 230.861 156.801C231.314 156.32 231.626 155.749 231.769 155.138C231.912 154.527 231.882 153.895 231.682 153.297C231.268 152.104 230.631 150.98 229.798 149.971C230.789 149.746 231.839 149.829 232.768 150.205C233.698 150.581 234.449 151.228 234.896 152.036C235.557 153.323 235.344 154.809 235.555 156.208C235.766 157.608 236.739 159.164 238.348 159.245C238.874 159.257 239.388 159.109 239.802 158.824C240.217 158.539 240.504 158.137 240.615 157.686C240.631 156.975 240.587 156.265 240.482 155.56C240.537 154.867 240.893 154.218 241.477 153.747C242.06 153.276 242.827 153.018 243.621 153.027C243.132 153.819 242.972 154.736 243.17 155.62C243.368 156.504 243.912 157.3 244.707 157.872C245.931 158.702 247.55 158.888 249.075 159.12C250.601 159.352 252.228 159.719 253.212 160.765C254.852 162.509 252.846 163.295 252.533 164.771C252.15 166.584 253.878 169.262 254.542 170.996C257.594 174.735 260.645 178.475 263.696 182.214C264.377 183.123 265.18 183.957 266.089 184.699C269.101 186.965 274.066 186.741 276.954 184.355C278.355 183.114 279.264 181.512 279.549 179.785C279.833 178.057 279.479 176.296 278.536 174.758C276.751 171.912 273.214 170.149 271.468 167.284C274.375 169.392 277.944 170.678 281.703 170.971C288.353 172.155 294.672 174.477 300.297 177.803C300.561 182.951 302.816 187.868 306.691 191.746C307.388 187.352 309.727 183.284 313.341 180.177C315.692 178.169 318.904 176.55 322.129 177.09C325.353 177.63 327.8 181.232 325.85 183.546C327.484 183.653 329.118 183.759 330.753 183.866C331.486 185.462 332.219 187.059 332.952 188.655C333.082 188.32 333.332 188.03 333.664 187.828C333.997 187.625 334.394 187.522 334.799 187.532C336.329 187.735 337.402 188.982 338.857 189.442C341.601 190.31 344.534 187.906 344.889 185.369C345.244 182.833 343.866 180.384 342.528 178.113C345.484 178.593 348.535 178.307 351.309 177.291C354.082 176.274 356.457 174.572 358.143 172.391C359.829 170.21 360.752 167.646 360.8 165.013C360.848 162.38 360.019 159.791 358.413 157.565C361.594 154.638 365.337 152.224 369.472 150.432C373.298 148.776 377.484 147.639 380.828 145.316C384.172 142.993 386.517 138.959 384.909 135.496C383.772 133.05 380.923 131.389 380.07 128.856C378.835 125.189 382.586 121.396 386.823 120.479C391.06 119.563 395.485 120.689 399.659 121.807C399.018 118.044 403.996 114.517 408.062 115.853C409.765 115.249 411.468 114.645 413.171 114.041C411.197 117.853 406.919 120.279 403.774 123.431C400.629 126.583 398.756 131.716 402.041 134.756C406.751 131.016 411.46 127.277 416.169 123.538C421.095 119.626 426.021 115.715 430.947 111.804C430.712 111.199 430.477 110.593 430.242 109.988C434.902 108.437 439.921 107.154 444.379 105.229Z" fill="#E6E6E6"/>
<path d="M199.772 155.554C199.582 155.794 199.481 156.079 199.482 156.372C199.484 156.664 199.589 156.948 199.782 157.187C200.035 157.375 200.355 157.48 200.686 157.484C201.018 157.488 201.341 157.39 201.6 157.208C202.106 156.83 202.501 156.351 202.752 155.811C202.996 156.226 203.381 156.565 203.853 156.781C204.325 156.998 204.861 157.082 205.389 157.022C206.445 156.882 207.444 156.517 208.3 155.958C208.978 155.61 209.578 155.155 210.067 154.615C210.309 154.343 210.476 154.026 210.553 153.688C210.63 153.35 210.616 153.001 210.511 152.669C210.257 152.159 209.863 151.713 209.363 151.37C208.117 150.361 206.871 149.353 205.624 148.345L205.202 148.234C204.982 148.029 204.718 147.865 204.424 147.752C204.13 147.639 203.813 147.579 203.492 147.576C203.171 147.573 202.853 147.627 202.556 147.735C202.26 147.842 201.991 148.001 201.766 148.202C200.993 148.96 200.989 150.094 201.108 151.106C201.226 152.119 201.41 153.197 200.895 154.109C200.6 154.632 200.101 155.046 199.772 155.554Z" fill="#E6E6E6"/>
<path d="M272.073 189.999C267.23 189.054 262.797 186.915 259.298 183.834C255.799 180.753 253.38 176.859 252.327 172.612C251.868 170.608 251.659 168.418 250.137 166.868C248.664 165.368 246.257 164.827 243.998 164.827C241.739 164.827 239.512 165.283 237.257 165.406C233.315 165.621 229.138 164.709 226.319 162.285C224.985 161.138 223.974 159.68 222.415 158.775C220.32 157.558 217.542 157.559 215.154 158.249C212.495 159.016 210.367 161.117 207.459 160.828C204.435 160.527 200.93 159.591 199.744 163.079C199.403 164.084 199.519 165.185 199.087 166.162C198.421 167.668 196.652 168.517 195.253 169.569C192.435 171.688 190.937 174.907 190.433 178.13C189.928 181.354 190.319 184.627 190.709 187.862C190.92 189.607 191.197 191.485 192.566 192.767C194.473 194.553 197.674 194.484 200.456 194.283C203.689 194.049 206.922 193.815 210.155 193.581C211.898 193.455 213.883 193.402 215.124 194.481C215.868 195.128 216.182 196.064 216.836 196.781C217.423 197.392 218.229 197.81 219.122 197.968C220.015 198.125 220.942 198.014 221.754 197.65C221.098 198.676 220.741 199.828 220.714 201.003C220.688 202.179 220.993 203.342 221.602 204.39C222.211 205.438 223.105 206.338 224.206 207.011C225.307 207.683 226.58 208.108 227.913 208.247L228.162 208.385C226.092 211.49 223.945 214.976 224.803 218.492C225.539 221.507 228.389 223.924 228.855 226.98C229.283 229.784 227.613 232.651 228.351 235.405C229.1 238.193 232.314 240.137 235.575 240.345C238.837 240.552 242.041 239.285 244.567 237.466C247.093 235.647 249.046 233.305 250.971 230.989C252.159 229.559 253.378 228.071 253.786 226.339C254.22 224.496 253.717 222.453 254.74 220.798C255.92 218.89 258.721 218.174 260.134 216.392C261.965 214.084 260.886 210.94 261.291 208.152C262.293 201.252 272.3 196.952 272.073 189.999Z" fill="#E6E6E6"/>
<path d="M270.625 213.555C270.352 214.633 269.2 215.342 268.103 215.884C267.005 216.427 265.799 216.974 265.24 217.963C264.667 218.976 264.929 220.183 265.228 221.283C265.851 223.57 266.585 225.831 267.43 228.067C269.068 225.356 270.497 222.553 271.71 219.676C272.223 218.605 272.54 217.47 272.649 216.312C272.699 215.732 272.61 215.15 272.388 214.603C272.165 214.055 271.814 213.554 271.358 213.133L270.625 213.555Z" fill="#E6E6E6"/>
<path d="M337.97 201.555C336.595 200.165 335.22 198.774 333.845 197.383C332.904 196.432 331.832 195.417 330.407 195.258L329.82 195.586C331.013 198.073 332.205 200.56 333.397 203.047C333.819 204.183 334.562 205.207 335.557 206.023C336.624 206.758 338.355 206.899 339.245 206.001C339.532 205.665 339.713 205.268 339.77 204.851C339.826 204.434 339.757 204.011 339.568 203.625C339.18 202.857 338.639 202.156 337.97 201.555Z" fill="#E6E6E6"/>
<path d="M351.294 204.217C351.814 204.059 352.29 203.807 352.693 203.479C353.095 203.15 353.415 202.751 353.631 202.308C354.057 201.421 354.339 200.485 354.467 199.529C354.702 198.283 354.937 197.038 355.172 195.793L354.865 195.723C354.566 195.598 354.226 195.572 353.907 195.649C353.588 195.727 353.311 195.903 353.129 196.145C352.783 196.64 352.521 197.176 352.351 197.737C352.264 198.017 352.106 198.277 351.888 198.496C351.671 198.715 351.4 198.888 351.095 199.002C349.991 199.294 348.946 198.269 347.794 198.309C347.328 198.361 346.896 198.55 346.569 198.844C346.241 199.139 346.038 199.522 345.991 199.931C345.924 200.756 346.191 201.576 346.745 202.247C347.727 203.583 349.551 204.657 351.294 204.217Z" fill="#E6E6E6"/>
<path d="M358.898 206.578L362.067 199.266C360.783 200.081 359.799 201.208 359.236 202.507C358.673 203.806 358.556 205.221 358.898 206.578Z" fill="#E6E6E6"/>
<path d="M375.069 200.684L374.428 200.707C374.142 201.204 373.99 201.751 373.984 202.307C373.978 202.863 374.118 203.413 374.393 203.914C374.956 204.913 375.774 205.784 376.784 206.46C378.35 207.592 380.137 208.466 382.058 209.04C384.876 209.76 387.79 210.153 390.724 210.209C392.402 210.305 394.08 210.402 395.757 210.498C396.556 210.543 397.59 210.455 397.812 209.781C397.996 209.224 397.454 208.701 396.949 208.327C392.51 205.055 387.13 202.916 381.396 202.143C379.221 201.853 376.913 201.734 375.069 200.684Z" fill="#E6E6E6"/>
<path d="M392.978 220.089C391.771 219.064 390.565 218.04 389.358 217.015C388.185 216.018 386.427 214.961 385.082 215.775C384.309 216.243 384.071 217.156 383.416 217.745C383.017 218.059 382.535 218.28 382.014 218.388C381.493 218.497 380.949 218.49 380.432 218.368C379.401 218.114 378.427 217.71 377.551 217.172L374.557 215.544C373.524 214.983 372.491 214.421 371.457 213.859L369.126 215.844C369.228 214.867 367.741 214.233 366.712 214.619C366.222 214.859 365.801 215.193 365.48 215.596C365.158 215.999 364.945 216.459 364.855 216.944C364.683 217.914 364.384 218.863 363.964 219.772C362.78 221.757 359.906 222.345 357.377 222.678C354.849 223.01 351.984 223.479 350.631 225.379C349.504 226.962 349.842 228.994 350.218 230.83L351.643 237.777C351.71 238.619 352.096 239.417 352.739 240.045C353.99 241.013 355.93 240.425 357.457 239.834C360.651 238.489 364.079 237.619 367.599 237.26C371.15 236.911 374.724 237.713 377.647 239.514C379.459 240.723 380.841 242.396 382.76 243.47C384.083 244.166 385.569 244.59 387.107 244.707C388.644 244.825 390.192 244.634 391.632 244.148C394.519 243.141 396.909 241.274 398.38 238.876C399.686 236.762 400.342 234.386 400.282 231.983C400.223 229.579 399.45 227.23 398.039 225.168C396.599 223.298 394.899 221.592 392.978 220.089Z" fill="#E6E6E6"/>
<path d="M389.42 248.392C389.13 248.7 388.961 249.081 388.937 249.479C388.912 249.877 389.034 250.272 389.285 250.605C389.81 251.265 390.612 251.717 391.515 251.863C392.41 252.004 393.322 252.04 394.228 251.972L394.255 251.379C394.014 250.339 393.466 249.372 392.667 248.575C391.793 247.847 390.248 247.624 389.42 248.392Z" fill="#E6E6E6"/>
<path d="M420.488 249.025L420.056 248.887C419.027 250.246 417.997 251.605 416.968 252.965C416.414 253.696 415.836 254.575 416.174 255.401C416.574 256.379 418.052 256.665 419.201 256.407C420.077 256.198 420.868 255.775 421.479 255.187C422.091 254.599 422.499 253.87 422.654 253.086C422.781 252.298 422.644 251.495 422.259 250.774C421.875 250.053 421.26 249.446 420.488 249.025Z" fill="#E6E6E6"/>
<path d="M428.336 244.712L425.494 242.732C425.456 243.651 425.418 244.569 425.38 245.487L425.273 245.489C425.929 245.992 426.548 246.531 427.126 247.103C427.791 247.598 428.908 247.825 429.476 247.244C429.646 247.037 429.743 246.789 429.754 246.534C429.765 246.278 429.689 246.026 429.537 245.807C429.225 245.375 428.816 245.003 428.336 244.712Z" fill="#E6E6E6"/>
<path d="M376.991 158.595C375.798 158.563 374.478 158.499 373.554 159.16C373.25 159.398 372.983 159.671 372.761 159.97L372.435 160.37C371.947 160.929 371.522 161.528 371.165 162.159C370.979 162.454 370.867 162.781 370.837 163.118C370.807 163.454 370.86 163.793 370.993 164.11C371.069 164.261 371.182 164.396 371.325 164.505C371.468 164.614 371.636 164.694 371.818 164.74C371.999 164.786 372.19 164.796 372.377 164.77C372.564 164.744 372.742 164.682 372.898 164.589C373.408 164.175 373.289 163.425 373.675 162.919C373.844 162.728 374.062 162.574 374.311 162.47C374.56 162.366 374.834 162.313 375.11 162.318C375.66 162.33 376.208 162.384 376.748 162.48C378.243 162.659 379.766 162.46 381.136 161.906C382.506 161.352 383.666 160.466 384.48 159.352C385.293 158.239 385.726 156.945 385.727 155.623C385.728 154.301 385.297 153.006 384.485 151.892L384.389 151.635C383.564 151.607 382.753 151.834 382.099 152.276C381.444 152.718 380.987 153.347 380.808 154.054C380.541 155.271 381.106 156.685 380.264 157.681C379.554 158.521 378.183 158.628 376.991 158.595Z" fill="#E6E6E6"/>
<path d="M387.665 145.69L387.484 145.676C386.417 145.847 385.393 146.181 384.459 146.663C384.153 146.788 383.908 147.005 383.77 147.275C383.73 147.419 383.73 147.569 383.772 147.712C383.814 147.855 383.896 147.986 384.011 148.095C384.242 148.309 384.513 148.488 384.813 148.624C385.259 148.884 385.751 149.077 386.27 149.195C386.531 149.251 386.803 149.25 387.063 149.191C387.322 149.132 387.561 149.018 387.758 148.858C387.943 148.636 388.069 148.381 388.13 148.111C388.19 147.842 388.182 147.564 388.107 147.297C388.022 146.75 387.874 146.211 387.665 145.69Z" fill="#E6E6E6"/>
<path d="M369.282 158.905C369.567 158.505 369.77 158.064 369.881 157.602C369.992 157.244 370.103 156.886 370.214 156.527L369.025 155.895C368.458 156.154 367.934 156.481 367.469 156.866C367.238 157.061 367.055 157.295 366.932 157.554C366.81 157.813 366.749 158.092 366.755 158.373C366.772 158.653 366.896 158.92 367.108 159.131C367.32 159.342 367.607 159.484 367.922 159.533C368.192 159.54 368.458 159.486 368.697 159.376C368.935 159.266 369.137 159.104 369.282 158.905Z" fill="#E6E6E6"/>
<path d="M239.778 62.0602C239.308 62.3169 239.441 62.9375 239.632 63.3931C239.851 63.9162 240.07 64.4393 240.288 64.9624L240.595 63.947C240.864 63.5531 240.983 63.0944 240.934 62.6375C240.828 62.1911 240.22 61.8191 239.778 62.0602Z" fill="#E6E6E6"/>
<path d="M119.23 411.35L126.343 411.349L129.726 387.316L119.229 387.317L119.23 411.35Z" fill="#FFB6B6"/>
<path d="M118.98 417.85L140.851 417.849V417.607C140.851 415.629 139.954 413.732 138.358 412.334C136.761 410.935 134.596 410.149 132.338 410.149H132.338L128.343 407.494L120.889 410.15L118.979 410.15L118.98 417.85Z" fill="#2F2E41"/>
<path d="M172.671 411.35L179.784 411.349L183.167 387.316L172.67 387.317L172.671 411.35Z" fill="#FFB6B6"/>
<path d="M172.421 417.85L194.293 417.849V417.607C194.292 415.629 193.395 413.732 191.799 412.334C190.203 410.935 188.037 410.149 185.78 410.149H185.779L181.784 407.494L174.33 410.15L172.421 410.15L172.421 417.85Z" fill="#2F2E41"/>
<path d="M118.951 215.846L131.573 214.262C135.842 220.515 137.359 237.16 137.359 237.16L149.712 262.881C150.53 263.367 151.187 264.034 151.618 264.814C152.048 265.594 152.236 266.46 152.163 267.324C152.09 268.188 151.759 269.02 151.202 269.736C150.645 270.452 149.883 271.027 148.992 271.403C148.101 271.779 147.113 271.943 146.127 271.878C145.141 271.813 144.192 271.522 143.375 271.033C142.558 270.545 141.903 269.876 141.474 269.095C141.046 268.315 140.861 267.449 140.936 266.585L120.654 236.647L118.951 215.846Z" fill="#FFB6B6"/>
<path d="M125.794 185.147C123.84 185.412 121.977 186.051 120.337 187.018C118.698 187.986 117.321 189.258 116.307 190.744C115.292 192.231 114.664 193.895 114.466 195.618C114.269 197.341 114.508 199.081 115.166 200.714L117.844 207.365C117.844 207.365 114.47 227.392 120.031 233.045L137.094 231.692C137.094 231.692 133.974 221.588 136.369 216.7C137.836 213.706 137.755 203.366 136.309 194.954C135.206 188.531 133.121 184.152 125.794 185.147Z" fill="#3F3D56"/>
<path d="M184.637 245.486C184.637 245.486 197.789 256.723 194.98 259.318C192.171 261.914 185.747 265.549 191.71 266.141C197.673 266.733 200.146 268.017 194.98 269.096C189.814 270.176 190.612 272.947 190.612 272.947C190.612 272.947 198.39 305.385 192.496 326.728C192.496 326.728 189.215 385.024 187.157 389.564C185.098 394.104 184.312 391.35 185.098 394.104C185.884 396.858 187.456 392.038 185.884 396.858C185.026 399.375 184.347 401.937 183.851 404.527L168.477 402.462C168.477 402.462 166.001 395.627 168.477 393.833C170.952 392.038 173.172 393.144 170.49 389.149C167.808 385.153 167.022 390.661 167.808 385.153C168.594 379.645 165.313 349.856 170.49 334.113L160.923 289.938L145.734 335.678C145.734 335.678 137.678 391.543 135.06 393.512C132.443 395.481 128.513 392.038 132.443 395.481C136.372 398.923 136.304 398.331 136.372 398.923C137.104 405.238 114.604 398.331 114.604 398.331C114.729 396.726 114.729 395.116 114.604 393.512C114.367 392.038 117.199 391.567 114.604 390.081C112.009 388.596 115.87 390.069 115.87 390.069C115.87 390.069 121.672 348.856 126.087 336.367L131.195 275.548C131.195 275.548 131.519 276.761 131.195 273.813C130.871 270.864 128.513 272.929 130.871 270.864C133.229 268.799 134.8 267.746 133.229 266.207C131.657 264.668 127.321 261.554 129.882 259.668C132.443 257.783 137.482 245.486 137.482 245.486L186.601 245.831" fill="#2F2E41"/>
<path d="M166.168 177.207L157.312 168.471L143.317 169.833L134.357 180.818C129.588 181.778 125.421 184.303 122.712 187.874C120.003 191.444 118.96 195.788 119.796 200.012C123.273 217.552 135.089 234.563 131.187 243.217C125.265 256.353 124.903 261.711 139.08 259.869C153.257 258.027 200.753 253.781 191.545 245.715C182.336 237.648 180.314 224.167 180.314 224.167L179.945 193.327C180.336 191.467 180.284 189.556 179.791 187.714C179.299 185.873 178.377 184.14 177.083 182.626C175.789 181.112 174.151 179.849 172.273 178.916C170.394 177.984 168.316 177.402 166.168 177.207Z" fill="#3F3D56"/>
<path d="M163.749 211.025L176.371 209.441C180.64 215.695 182.157 232.339 182.157 232.339L194.51 258.06C195.328 258.547 195.985 259.214 196.416 259.994C196.846 260.774 197.034 261.64 196.961 262.504C196.888 263.368 196.557 264.2 196 264.916C195.443 265.632 194.681 266.207 193.79 266.583C192.899 266.959 191.911 267.123 190.925 267.058C189.939 266.993 188.989 266.701 188.173 266.213C187.356 265.724 186.701 265.056 186.272 264.275C185.844 263.494 185.658 262.628 185.734 261.764L165.452 231.826L163.749 211.025Z" fill="#FFB6B6"/>
<path d="M170.591 180.328C168.638 180.593 166.775 181.232 165.135 182.2C163.495 183.167 162.119 184.439 161.105 185.926C160.09 187.412 159.462 189.076 159.264 190.799C159.067 192.523 159.306 194.263 159.964 195.896L162.642 202.547C162.642 202.547 159.268 222.573 164.829 228.226L181.892 226.873C181.892 226.873 178.772 216.77 181.167 211.881C182.634 208.887 182.552 198.547 181.107 190.136C180.004 183.713 177.918 179.334 170.591 180.328Z" fill="#3F3D56"/>
<path d="M146.468 167.719C155.81 167.719 163.383 161.085 163.383 152.901C163.383 144.716 155.81 138.082 146.468 138.082C137.126 138.082 129.553 144.716 129.553 152.901C129.553 161.085 137.126 167.719 146.468 167.719Z" fill="#FFB6B6"/>
<path d="M143.356 167.405C148.067 166.371 148.228 165.192 152.939 164.158C154.439 163.829 156.177 163.31 156.622 162.013C156.727 161.538 156.705 161.048 156.558 160.582C156.411 160.116 156.143 159.687 155.774 159.327C155.032 158.615 154.337 157.866 153.692 157.085C153.264 156.457 153.018 155.747 152.974 155.018C152.93 154.288 153.089 153.559 153.438 152.896C153.787 152.232 154.316 151.653 154.978 151.208C155.64 150.763 156.415 150.466 157.238 150.343C158.695 150.125 160.198 150.463 161.664 150.299C163.676 150.075 166.635 143.537 165.345 142.166C164.09 140.832 162.03 140.035 161.337 138.416C160.885 137.357 161.132 136.173 160.931 135.056C160.632 133.399 156.806 137.985 157.315 136.369C158.564 132.404 137.429 131.779 135.228 136.866C134.406 138.767 132.18 139.069 130.467 140.442C129.345 141.341 126.661 144.219 126.271 145.771C125.949 147.339 126.011 148.95 126.453 150.496C128.209 157.743 131.11 164.166 138.832 167.185" fill="#2F2E41"/>
<path d="M9.9668 418.788L316.254 419C316.377 419 316.499 418.979 316.613 418.938C316.727 418.897 316.83 418.837 316.917 418.76C317.004 418.684 317.074 418.594 317.121 418.494C317.168 418.394 317.192 418.288 317.192 418.18C317.192 418.072 317.168 417.965 317.121 417.866C317.074 417.766 317.004 417.675 316.917 417.599C316.83 417.523 316.727 417.463 316.613 417.422C316.499 417.381 316.377 417.36 316.254 417.36L9.9668 417.148C9.84368 417.148 9.72171 417.169 9.60787 417.21C9.49402 417.251 9.39054 417.312 9.30336 417.388C9.21617 417.464 9.14701 417.554 9.09982 417.654C9.05262 417.754 9.02832 417.86 9.02832 417.968C9.02832 418.076 9.05262 418.183 9.09982 418.283C9.14701 418.382 9.21617 418.473 9.30336 418.549C9.39054 418.625 9.49402 418.685 9.60787 418.726C9.72171 418.767 9.84368 418.788 9.9668 418.788Z" fill="black"/>
</g>
<defs>
<clipPath id="clip0_378_502">
<rect width="545.899" height="419" fill="white" transform="translate(0.827148)"/>
</clipPath>
</defs>
</svg>
